<svg xmlns="http://www.w3.org/2000/svg" xmlns:xlink="http://www.w3.org/1999/xlink" width="24" height="24" preserveAspectRatio="xMidYMid meet" viewBox="0 0 24 24" style="-ms-transform: rotate(360deg); -webkit-transform: rotate(360deg); transform: rotate(360deg);"><path d="M19 3H5a2 2 0 0 0-2 2V19a2 2 0 0 0 2 2H19a2 2 0 0 0 2-2V5a2 2 0 0 0-2-2m-3.4 14L12 13.4L8.4 17L7 15.6l3.6-3.6L7 8.4L8.4 7l3.6 3.6L15.6 7L17 8.4L13.4 12l3.6 3.6l-1.4 1.4z" fill="#ffffff"/><rect x="0" y="0" width="24" height="24" fill="rgba(0, 0, 0, 0)" /></svg>